PathFileType        4      (X/Y/Z)      C:\Users\pc\Desktop\IMUTRC\Sujet_07\Sujet_07_velo_80.trc         
DataRate	CameraRate	NumFrames	NumMarkers	Units	OrigDataRate	OrigDataStartFrame	OrigNumFrames
60.0	60.0	4	64	mm	60.0	352	936
Frame#	Time	pHipOrigin			pRightASI			pLeftASI			pRightCSI			pLeftCSI			pRightIschialTub			pLeftIschialTub			pSacrum			pL5SpinalProcess			pL3SpinalProcess			pT12SpinalProcess			pIJ			pT4SpinalProcess			pT8SpinalProcess			pPX			pC7SpinalProcess			pTopOfHead			pRightAuricularis			pLeftAuricularis			pBackOfHead			pRightAcromion			pLeftAcromion			pRightArmLatEpicondyle			pRightArmMedEpicondyle			pLeftArmLatEpicondyle			pLeftArmMedEpicondyle			pRightUlnarStyloid			pRightRadialStyloid			pRightOlecranon			pLeftUlnarStyloid			pLeftRadialStyloid			pLeftOlecranon			pRightTopOfHand			pRightPinky			pRightBallHand			pLeftTopOfHand			pLeftPinky			pLeftBallHand			pRightGreaterTrochanter			pRightKneeLatEpicondyle			pRightKneeMedEpicondyle			pRightPatella			pLeftGreaterTrochanter			pLeftKneeLatEpicondyle			pLeftKneeMedEpicondyle			pLeftPatella			pRightTibialTub			pRightLatMalleolus			pRightMedMalleolus			pLeftTibialTub			pLeftLatMalleolus			pLeftMedMalleolus			pRightHeelFoot			pRightFirstMetatarsal			pRightFifthMetatarsal			pRightPivotFoot			pRightHeelCenter			pRightToe			pLeftHeelFoot			pLeftFirstMetatarsal			pLeftFifthMetatarsal			pLeftPivotFoot			pLeftHeelCenter			pLeftToe			
		X1	Y1	Z1	X2	Y2	Z2	X3	Y3	Z3	X4	Y4	Z4	X5	Y5	Z5	X6	Y6	Z6	X7	Y7	Z7	X8	Y8	Z8	X9	Y9	Z9	X10	Y10	Z10	X11	Y11	Z11	X12	Y12	Z12	X13	Y13	Z13	X14	Y14	Z14	X15	Y15	Z15	X16	Y16	Z16	X17	Y17	Z17	X18	Y18	Z18	X19	Y19	Z19	X20	Y20	Z20	X21	Y21	Z21	X22	Y22	Z22	X23	Y23	Z23	X24	Y24	Z24	X25	Y25	Z25	X26	Y26	Z26	X27	Y27	Z27	X28	Y28	Z28	X29	Y29	Z29	X30	Y30	Z30	X31	Y31	Z31	X32	Y32	Z32	X33	Y33	Z33	X34	Y34	Z34	X35	Y35	Z35	X36	Y36	Z36	X37	Y37	Z37	X38	Y38	Z38	X39	Y39	Z39	X40	Y40	Z40	X41	Y41	Z41	X42	Y42	Z42	X43	Y43	Z43	X44	Y44	Z44	X45	Y45	Z45	X46	Y46	Z46	X47	Y47	Z47	X48	Y48	Z48	X49	Y49	Z49	X50	Y50	Z50	X51	Y51	Z51	X52	Y52	Z52	X53	Y53	Z53	X54	Y54	Z54	X55	Y55	Z55	X56	Y56	Z56	X57	Y57	Z57	X58	Y58	Z58	X59	Y59	Z59	X60	Y60	Z60	X61	Y61	Z61	X62	Y62	Z62	X63	Y63	Z63	X64	Y64	Z64	
352	5.85	0.0	1249.97763	7.653905517926474E-14	131.74354898768397	1320.00252	116.96265958389212	69.20367693283764	1324.01243	-160.26040451825713	108.38893095911159	1402.65119	97.56244460074353	56.903910338927965	1405.91853	-130.49122385636713	-61.31875466595913	1214.48252	73.23683853829249	-87.07982564592393	1216.11618	-40.75783766702033	-55.95844771627006	1295.86881	13.308854557266452	18.280639413985384	1381.1165	-3.593636259868754	103.55386940290649	1468.29488	-22.528583126186195	184.67082256279556	1544.85443	-40.94782735429886	449.338501412971	1517.67617	-86.64213424412564	358.3465864577527	1646.21601	-78.29721446370117	274.3602393807487	1608.49317	-60.84865418421629	336.8634407333443	1461.31467	-62.919054562619685	412.22315469970897	1669.08735	-87.40608799622107	684.9947995458151	1677.55271	-116.24573573381055	592.4120939274023	1645.32492	-38.16516570052697	578.5695519275782	1664.55763	-181.12019965092549	573.5343146509255	1709.92901	-101.111632859598	438.8789218455112	1599.06246	98.70242899252416	377.10487600836115	1607.00802	-267.7680250284434	462.70722180203404	1313.9134	75.84648280983524	430.56223571826365	1314.35895	19.9883719155201	389.5865225636809	1312.72528	-278.3967510243743	356.8369783728536	1305.37378	-223.30655656113916	546.6436771081446	1070.64561	36.50407761241741	595.1433371862099	1094.18526	31.064722207388325	422.01423567478656	1306.41339	53.209822293923445	444.23155864745127	1055.86835	-261.50986990289925	493.5700848035145	1073.31888	-275.38240397576664	348.53689712006184	1304.77972	-245.762134124354	739.3507793328976	1041.98219	131.0432455797758	660.374780000094	1016.73461	84.41748900271759	605.1867205488231	1053.49211	40.550311943450374	581.4277813637214	992.67516	-415.52667825401437	526.5671045466536	982.94742	-338.475518669237	495.83370455642785	1031.21484	-283.16450839682915	45.78594919529525	1224.80432	171.6869897209814	303.3028583072188	863.9868	145.3583793310329	300.53487532920064	860.1254	59.55844648344611	338.7393335325669	892.57596	97.04994379957428	-24.77839163208047	1237.57662	-177.47902676339706	289.0699729789034	945.37309	-292.6141801420233	320.3538642662834	937.50179	-212.9873293102267	333.93486116053106	979.45732	-257.4509459484989	359.14659422327253	829.16	104.03035143996901	286.81435650700246	423.49091	145.69944218969854	291.40704558117443	421.26318	80.26931136986617	319.41151488600076	885.1502	-259.9195723050962	-9.971676392070961	644.92697	-186.93686985229797	13.649173894490993	640.02597	-125.96798266660117	228.62080392605085	353.02048	108.67157193283765	390.9101199454909	310.47089	84.21239106156561	384.12858742175155	311.43624	163.38422994586315	409.3077576737253	305.12434	124.67362777701771	268.86473927294134	347.22839	112.1850112155063	497.7958668029195	279.654	132.54664689955396	-78.67438443530475	605.86749	-130.91068890384608	51.66984590320402	497.82273	-140.28697832360402	26.002685892544335	501.83264	-215.3848330991413	55.26820308312831	485.2732	-183.05423578301316	-46.80694583268206	583.44171	-143.03733167067034	120.00289447431385	424.382	-208.44517028483816	
353	5.867	0.0	1249.97763	7.653905517926474E-14	133.70337556474223	1319.03717	115.35032037840338	67.01450616006494	1324.68075	-160.92410951336998	110.23470806185597	1401.83436	96.741704879343	55.375064803467566	1406.43833	-130.51644571202488	-60.29975651672973	1214.25974	73.99664197100851	-87.71101564592392	1216.56173	-39.66458451779093	-55.622337185696814	1295.94307	14.360354041354663	18.527925986156507	1381.04224	-3.2793691668986904	103.80382544939152	1468.14637	-22.81299969835732	184.78487703710948	1544.63166	-41.73943549864112	449.21059826374164	1517.30488	-88.94535949121227	358.35458488069446	1645.91898	-80.09324813861666	274.47695832937654	1608.2704	-62.23893733344569	336.83430915628605	1461.01764	-64.65077719105011	412.25104602968054	1668.71606	-89.53361719682265	685.0226995360408	1676.5131	-118.3732599344121	592.1827497316879	1644.73086	-40.44120990112849	578.6717069178039	1663.66654	-183.37633728424308	573.710720980897	1709.26069	-103.4963975858857	439.6069378871091	1598.61691	96.55038821975144	376.4498883799307	1606.63673	-269.60385317767276	462.61840284363194	1313.46785	75.10924175846304	430.3719757133765	1313.69063	19.278311910632933	389.0647633728536	1312.35399	-279.1267175965454	356.12230336307925	1305.07675	-224.1479031333103	546.1835731497425	1069.90303	36.40992104513345	594.6832245675538	1093.36842	30.970560640104377	421.86109700964533	1305.89358	52.43544624255127	443.6872370752801	1055.49706	-261.3096572842431	493.0257682313433	1072.94759	-275.18220001736455	347.9236494965185	1304.48269	-246.63065808275607	738.7050167142414	1041.23961	131.27063924491696	659.8675970881768	1015.99204	84.55339557488867	604.689477930167	1052.67528	40.52046142265139	580.9477708380352	992.15536	-415.2893356353582	526.0870990209675	982.50188	-338.2381847108348	495.32651298425674	1030.84355	-283.0286068246581	47.47326234452466	1224.28452	171.28923761823702	286.37875546051737	850.84321	146.3054053340408	281.9705332867848	845.79369	60.673170109997365	322.34497963938037	876.90761	96.93089769983784	-25.78281716265373	1239.58157	-177.37297071202488	298.4427534877381	961.26421	-298.00671219151627	330.10521791457313	953.09588	-218.59000927163675	342.10762218527753	996.31378	-262.25012328147847	341.890992190631	815.57086	104.95747087569293	273.3165602569079	409.23345	146.652511085075	277.87213299133396	407.07999	81.28668765147356	329.07599144620764	901.11558	-264.629216735933	0.3975398846492624	660.22403	-190.63941927824763	23.77838307824117	655.99135	-129.55186761334977	212.29076107934944	341.36204	108.58965583310119	372.638192898188	292.35204	83.78103705968638	365.79234566770947	292.50056	162.91573228372988	390.74146144048217	285.66886	124.15805616136949	252.20319724029977	333.86202	112.08318854848586	478.11642451341703	256.48564	131.73138080959185	-67.5851592001824	619.30811	-134.96925042765292	65.13193638052586	514.38217	-145.63366300641457	39.42764636986615	518.76337	-220.66720673546683	69.00742199316616	502.4267	-188.5839009915098	-35.2748450718736	597.77342	-147.2689161063943	135.14500996140998	443.39194	-214.6225436425642	
354	5.883	0.0	1249.97763	7.653905517926474E-14	135.5246360953155	1317.99757	113.82946460563068	65.01826352674732	1325.20055	-161.47641584822878	112.14479621108538	1400.94327	95.9580951579425	54.113395086954206	1406.88387	-130.55890966065272	-59.4093854604704	1214.11123	74.68219406397859	-88.44364169240896	1217.08153	-38.544158982330536	-55.28622299486953	1296.09158	15.411867185696915	18.913774944558625	1380.96798	-3.0565991668986907	104.15521388210755	1467.92359	-23.124602317013473	185.16611099062442	1544.33463	-42.548272075699394	449.31275325396734	1516.93359	-91.20149712452987	358.4911967363522	1645.5477	-81.81502681353213	274.68516937097445	1607.89911	-63.490649436190054	337.03524071868287	1460.64635	-66.3354208659656	412.3704294526223	1668.34477	-91.52257535093919	685.2435153452136	1675.4735	-120.38940413501372	592.1735247219136	1644.1368	-42.50443171549911	578.9024753407456	1662.84971	-185.55821991756068	573.9143083573538	1708.59237	-105.77972126568834	440.527869747654	1598.09711	94.50972744697873	376.0249502307013	1606.3397	-271.39259871313317	462.62107231794585	1312.79954	74.51055809332186	430.2731991412054	1312.87379	18.706817952230804	388.70875993525044	1311.90845	-279.8467215549475	355.38044230682	1304.77972	-225.0906820917124	545.7506365775714	1069.01194	36.417209184588536	594.2874179953826	1092.40308	30.913537733074445	421.7994590977283	1305.22526	51.79964623766411	443.11574311687804	1055.12578	-261.21088071207197	492.5185766591722	1072.50205	-275.04629844519343	347.3747179194603	1304.18566	-247.46206070141227	738.2349638023244	1040.42278	131.34223477060308	659.3975355160057	1015.10095	84.6249861005748	604.2565413579958	1051.78419	40.52774956210647	580.4034542658641	991.5613	-415.089131676956	525.4413414023113	982.05633	-338.0107997059476	494.78220007233966	1030.39801	-282.8283892060019	49.299137879985054	1223.83897	170.7999884225226	269.833222093017	839.11051	147.04226976487763	263.3518291513989	832.94713	61.58501164357852	305.9705236532239	862.65016	96.48034741416127	-26.722940306995966	1241.73504	-177.2297896606527	306.96690660545465	977.08107	-303.117478482898	338.80506341852066	968.39294	-223.85658370247353	349.35749215865184	1012.87322	-266.6389264236307	324.40800015310225	803.16985	105.23884135301476	257.4386416059209	396.75818	148.4607729070299	261.4697770149517	394.4562	82.96366156639856	338.25051352721346	917.0067	-268.93577511539763	12.149746171143804	672.6993	-194.65817766748657	35.152019885534656	669.35771	-133.36046443041755	193.5063185112475	331.48578	109.49154475291336	351.7017045573133	276.31241	83.95491859815469	344.85586598708886	275.64409	163.0896188221982	369.4834265274364	268.36685	124.1462926998378	233.0600731000267	322.3521	112.86375217503709	455.5151890649109	235.47075	131.37284892023126	-54.808625815830645	629.33288	-139.4255553939501	81.07560396547917	528.78814	-151.86272532254273	55.06699581536441	533.54062	-226.81473457239397	85.22822667108956	517.6495	-194.99593883332406	-21.805475115350724	609.06057	-152.18266921703375	153.1943546491077	461.06524	-222.12250568498007	
355	5.9	0.0	1249.97763	7.653905517926474E-14	137.27163662588873	1316.95796	112.43723092582803	63.21495037263077	1325.72035	-161.91734584334162	113.95343831382974	1400.05218	95.20167514328104	53.108969556380956	1407.25516	-130.4528536092805	-58.61049783692709	1213.96271	75.22918011046362	-89.00057669240896	1217.60133	-37.57951926581716	-54.94016851078133	1296.2401	16.297623237069093	19.363943609699817	1380.89373	-2.79669416689869	104.63521940779364	1467.70082	-23.36193627541559	185.57452599062444	1544.0376	-43.255667606272645	449.4593140631401	1516.48804	-93.08902789241544	358.810784117696	1645.10215	-83.25966839547756	275.0219938452883	1607.45356	-64.66810653893442	337.29051705354163	1460.20081	-67.81719244791103	412.6084823547651	1667.89922	-93.27153507233972	685.5186982473564	1674.50815	-122.20267490289923	592.2186481448554	1643.54274	-44.36476777664562	579.2519132428883	1661.95862	-187.50010411816226	574.3008762594966	1707.92405	-107.78591651277496	441.530344747654	1597.65157	92.77338981366111	375.782992607158	1605.96841	-272.9042158158775	462.6780902249758	1312.20548	74.11476018140476	430.33022204823527	1312.13122	18.31101138005968	388.4170638838782	1311.4629	-280.52960917360366	354.76719968327666	1304.48269	-225.9592147103686	545.3919650054003	1068.19511	36.295866570819506	593.9930574696965	1091.43773	30.829325119305405	421.85648200475816	1304.6312	51.40383966549296	442.74712259119195	1054.68023	-261.16647123287095	492.1128261334861	1071.98224	-274.9375779195073	346.991524775118	1303.74011	-248.28351070629938	737.8663432766383	1039.53169	131.38664424980416	659.0660449903196	1014.20986	84.60508453329078	603.9621808323097	1050.8931	40.44353694833749	579.9977037401779	991.0415	-414.98041115126995	525.0998969231102	981.53653	-337.86494052000756	494.3764495466536	1029.8782	-282.7196686803158	51.060706029214465	1223.17065	170.2736228870622	255.2150053074621	829.53129	147.26270395351494	246.85337473741353	822.62533	62.09181293496022	291.3006129092668	850.99172	95.89923816519541	-27.49731135836815	1243.81426	-177.07665965576555	314.1153405323439	991.78407	-307.4791092388193	346.19349577812596	982.57613	-228.3368839375959	355.39738637391486	1028.17028	-270.2686500768077	308.95377440425807	792.47676	104.97660554165206	240.52909771762162	386.51064	150.27366205438008	243.98874416825032	383.91162	84.87531862566583	346.5764045568471	931.7097	-272.96058139700506	24.733355076294515	681.68447	-199.22586763378374	47.45849669771529	679.15971	-137.7451875312827	173.92759832448942	323.83725	110.8780628635528	329.9437662115515	263.0203	84.51199328096526	323.1622300275581	261.83218	163.68381850500876	347.4583087024735	254.03514	124.72059581536436	213.1598063410975	313.14416	114.06462528567654	432.25824704423354	217.79745	131.40745412872792	-40.69350190090563	635.71904	-144.56670716973073	98.69930156020682	540.29806	-158.92248497384043	72.34925759114502	545.34758	-233.72863003775154	103.12905635878727	530.05052	-202.23866535005382	-7.071779628254603	616.78336	-157.6526383839325	172.98804405331876	476.3623	-230.4160214023114	
